# xmcd
#
# Track frame offsets:
#	150
#	11307
#	23005
#	40746
#	52856
#	72586
#	91021
#	107259
#	127903
#
# Disc length: 1895 seconds
#
# Revision: 1
# Processed by: cddbd v1.4PL0 Copyright (c) Steve Scherf et al.
# Submitted via: EasyCDDAExtractor 5.0.6
#
DISCID=5a076509
DTITLE=Swiet and Bjuster
DYEAR=1900
DGENRE=Blues
TTITLE0=Ik moat in pear sinten ha
TTITLE1=Gek op froulju
TTITLE2=2e keus
TTITLE3=Auto mei skea
TTITLE4=Rûg as in Wâldman
TTITLE5=In jûne yn Grins
TTITLE6=Hobby
TTITLE7=Besleine ruten
TTITLE8='t leven is prachtich
EXTD=
EXTT0=
EXTT1=
EXTT2=
EXTT3=
EXTT4=
EXTT5=
EXTT6=
EXTT7=
EXTT8=
PLAYORDER=
